<?xml version="1.0" encoding="utf-8"?>
<!-- Generator: Adobe Illustrator 16.0.0, SVG Export Plug-In . SVG Version: 6.00 Build 0)  -->
<!DOCTYPE svg PUBLIC "-//W3C//DTD SVG 1.1//EN" "http://www.w3.org/Graphics/SVG/1.1/DTD/svg11.dtd">
<svg version="1.1" id="Ebene_1" xmlns="http://www.w3.org/2000/svg" xmlns:xlink="http://www.w3.org/1999/xlink" x="0px" y="0px"
	 width="175.748px" height="24.854px" viewBox="0 6.965 175.748 24.854" enable-background="new 0 6.965 175.748 24.854"
	 xml:space="preserve">
<path fill="#FBC000" d="M56.665,16.206c-0.768,1.04-2.053,2.848-2.835,3.904c-0.397,0.537-1.114,1.512,1.263,1.512
	c2.515,0,12.515,0,12.515,0s2.017-2.744,3.708-5.039c2.3-3.122,0.199-9.618-8.024-9.618c-7.36,0-32.384,0-32.384,0l-5.615,7.629
	c0,0,29.109,0,30.603,0C57.441,14.594,57.42,15.182,56.665,16.206z M47.471,23.504c-2.377,0-1.66-0.979-1.263-1.514
	c0.782-1.058,2.088-2.847,2.856-3.887c0.756-1.024,0.776-1.612-0.771-1.612c-1.493,0-13.996,0-13.996,0L23.02,31.819
	c0,0,20.141,0,27.501,0c9.083,0,14.14-6.178,15.699-8.314C66.22,23.504,49.985,23.504,47.471,23.504z M65.361,31.819h16.133
	l6.116-8.316l-16.131,0.002C71.474,23.504,65.361,31.819,65.361,31.819z M106.985,6.965l-6.188,8.405h-7.198l6.185-8.405H83.655
	l-10.79,14.657h39.46l10.787-14.657H106.985z M88.694,31.819h16.127l6.119-8.314H94.813C94.808,23.504,88.694,31.819,88.694,31.819z
	 M0,26.784v1.766h22.468l1.298-1.766H0z M26.181,23.504H0v1.764h24.88L26.181,23.504z M0,31.819h20.061l1.292-1.756H0V31.819z
	 M152.071,28.549h23.677v-1.766h-22.376L152.071,28.549z M149.667,31.819h26.081v-1.756h-24.79L149.667,31.819z M155.783,23.504
	l-1.298,1.766h21.263v-1.766H155.783z M134.659,21.622l10.789-14.657h-17.081c-0.007,0-10.798,14.657-10.798,14.657H134.659z
	 M116.187,23.504c0,0-1.179,1.611-1.752,2.387c-2.023,2.736-0.232,5.928,6.377,5.928c7.635,0,25.9,0,25.9,0l6.119-8.314H116.187
	L116.187,23.504z"/>
</svg>
