<?xml version="1.0" encoding="utf-8"?>
<!-- Generator: Adobe Illustrator 19.2.1, SVG Export Plug-In . SVG Version: 6.00 Build 0)  -->
<svg version="1.1" id="Ebene_1" xmlns="http://www.w3.org/2000/svg" xmlns:xlink="http://www.w3.org/1999/xlink" x="0px" y="0px"
	 viewBox="0 0 2543.5 1127.8" style="enable-background:new 0 0 2543.5 1127.8;" xml:space="preserve">
<path d="M513.5,59L111.2,278.5l446.5,259.7c4.1,2.4,8.7,7.1,8.7,12.2l0,382.6c0,5.4-4.7,9-5.3,9.3L534.5,957
	c-4.1,2.3-10.2,2.5-16.2-0.8l-23.7-13.2c-3.4-1.9-6.4-6.5-6.4-11.5V593.1c0-6-6.5-8.8-10.8-11.3L89.5,356.1v452.6
	c0,10,9.6,21.5,17.7,26.3l402.8,237.6c12.9,7.6,20.6,6.4,38.5-2.6l398-234.9c9.3-5.5,18.3-15.7,18.3-27V356l-267,156.1
	c-3.4,2-9.4,2.7-12.9,0.7l-24.2-14c-4.8-2.8-9.2-8.3-9.3-14.1l-0.5-28.2c-0.1-4.2,2.8-9.8,6.5-11.9l285.6-166.3L540.9,59.1
	C534.6,55.7,520,55.5,513.5,59L513.5,59z"/>
<path d="M1503.1,735.7c-6.5,1.5-49.7,6-65.8,3.4c-65.6-10.7-97.2-44.2-97.8-102.6c-0.7-62.2,25.2-107.4,102-110.6
	c13-0.5,56,7.1,61.3,12L1503.1,735.7L1503.1,735.7z M1602.2,807.7V275.2h-99.6v174.6c-9.3-5.4-50-12.7-81.9-11.8
	c-106.5,3-185.6,87-183.4,189.7c2.8,134.3,82,190.6,206.1,198.4C1507,830.1,1583.3,810.7,1602.2,807.7L1602.2,807.7z M2321.8,735.7
	c-6.5,1.5-49.7,6-65.8,3.4c-65.6-10.7-97.2-44.2-97.9-102.6c-0.7-62.2,25.2-107.4,102-110.6c13-0.5,56,7.1,61.3,12L2321.8,735.7z
	 M2421,807.7V275.2h-99.6v174.6c-9.3-5.4-50-12.7-82-11.8c-106.5,3-185.6,87-183.4,189.7c2.8,134.3,82,190.6,206.1,198.4
	C2325.8,830.1,2402.1,810.7,2421,807.7L2421,807.7z M1658.1,469.2v500h100.8l-0.4-434.9c6.5-1.5,49.4-7.2,65.7-6.3
	c66.4,3.9,96.7,41,98.2,99.4c1,37.3-11.4,68.3-35.8,87.6c-18.4,14.6-43.9,22.1-73.5,23l0.2,87.5c46.4,1.3,93.4-8.4,130.6-32.4
	c48.2-31.1,82.5-100.1,80.6-165.6c-3.4-118.6-70.2-186-206.1-188.9C1754.7,437.2,1677.5,459.5,1658.1,469.2L1658.1,469.2z"/>
</svg>
