<?xml version="1.0" encoding="utf-8"?>
<!-- Generator: Adobe Illustrator 16.0.4, SVG Export Plug-In . SVG Version: 6.00 Build 0)  -->
<!DOCTYPE svg PUBLIC "-//W3C//DTD SVG 1.0//EN" "http://www.w3.org/TR/2001/REC-SVG-20010904/DTD/svg10.dtd">
<svg version="1.0" id="Ebene_1" xmlns="http://www.w3.org/2000/svg" xmlns:xlink="http://www.w3.org/1999/xlink" x="0px" y="0px"
	 width="535.749px" height="183.258px" viewBox="0 0 535.749 183.258" enable-background="new 0 0 535.749 183.258"
	 xml:space="preserve">
<g>
	<path d="M107.847,169.182c-3.38-10.588,2.487-21.962,13.103-25.326c10.614-3.368,21.968,2.459,25.337,13.102
		c3.382,10.608-2.491,21.971-13.104,25.329C122.567,185.703,111.219,179.826,107.847,169.182z"/>
	<path d="M64.657,170.22c-2.437-7.672,1.791-15.815,9.412-18.232c7.63-2.423,15.782,1.802,18.214,9.414
		c2.417,7.605-1.787,15.771-9.419,18.232C75.235,182.045,67.083,177.822,64.657,170.22z"/>
	<path d="M31.273,152.551c-1.949-6.117,1.419-12.686,7.555-14.609c6.119-1.974,12.669,1.452,14.618,7.567
		c1.945,6.107-1.437,12.635-7.566,14.603C39.767,162.076,33.223,158.67,31.273,152.551z"/>
	<path d="M324.819,10.138v14.486H305.86V10.138H324.819z M279.862,0v35.637c-3.375-3.575-6.769-6.056-10.008-7.48
		c-4.089-1.682-8.33-2.531-12.754-2.531c-8.803,0-16.62,3.143-23.385,9.438c-7.372,6.832-11.054,16.161-11.054,27.979
		c0,10.378,2.841,18.792,8.499,25.237c6.412,7.28,14.93,10.945,25.605,10.945c5.587,0,10.565-1.157,14.85-3.542
		c2.76-1.496,5.516-4.131,8.247-7.851v8.997h18.979V0H279.862z M275.373,76.992c-3.575,4.665-8.214,6.983-13.964,6.983
		c-5.05,0-9.347-1.842-12.933-5.526c-3.786-3.811-5.691-8.944-5.691-15.33c0-5.051,1.259-9.472,3.703-13.302
		c3.589-5.522,8.622-8.286,15.076-8.286c5.31,0,9.667,2.035,13.134,6.102c3.471,4.032,5.165,9.137,5.165,15.357
		C279.862,68.395,278.366,73.08,275.373,76.992z M324.819,28.028v68.801H305.86V28.028H324.819z M517.633,43.566v33.002
		c0,1.75,0.434,2.896,1.25,3.495c0.926,0.614,2.31,0.935,4.153,0.935h12.712v15.832h-24.584c-4.395,0-7.655-1.1-9.801-3.284
		c-1.792-1.88-2.675-5.156-2.675-9.853V3.295h18.944v24.364h18.115v15.907H517.633z M496.877,28.028h-21.898L455.742,54.4V3.541
		h-18.98v47.167c-1.354-4.488-3.531-8.543-6.499-12.153c-7.146-8.635-16.787-12.93-28.995-12.93c-7.178,0-13.595,1.595-19.189,4.793
		c-2.695,1.51-5.013,3.341-7.114,5.462V27.79h-21.599c-3.994,0.365-7.599,1.364-10.773,3.001c-2.701,1.353-5.153,3.365-7.392,6.043
		c-2.322,2.675-3.44,6.37-3.44,11.075v48.837h18.992V50.22c0.326-1.068,0.886-2.069,1.688-2.979c0.72-0.732,1.759-1.398,3.051-2.04
		c1.268-0.636,2.951-0.944,5-0.944h8.573c-2.778,5.546-4.133,11.57-4.133,18.052c0,10.29,3.095,18.688,9.267,25.245
		c7.373,7.782,16.778,11.671,28.213,11.671c8.525,0,16.221-2.637,23.054-7.969c4.22-3.307,7.649-7.652,10.372-13.022l-17.316-4.793
		c-1.17,2.289-2.818,4.132-4.891,5.521c-3.38,2.267-7.014,3.425-11.003,3.425c-5.721,0-10.358-2.094-13.942-6.256
		c-2.104-2.384-3.438-5.454-4.092-9.23h52.169v29.927h18.98V68.284l19.192,28.545h21.943L473.398,61.01L496.877,28.028z
		 M384.529,56.075c0.732-3.644,2.02-6.536,3.859-8.726c3.31-3.821,7.628-5.734,13.091-5.734c5.662,0,10.196,1.913,13.666,5.734
		c1.988,2.19,3.302,5.083,3.902,8.726H384.529z"/>
	<path d="M196.772,28.028l-16.066,40.906l-13.959-40.906h-18.649h-1.477h-17.495v8.708c-2.755-3.241-5.416-5.638-7.988-7.194
		c-4.259-2.567-9.111-3.85-14.539-3.85c-6.545,0-12.422,1.604-17.658,4.798c-5.181,3.102-9.187,7.286-11.993,12.582
		c-1.024,1.885-1.873,3.866-2.585,5.86c-2.42-7.233-6.956-13.104-13.622-17.57c-5.66-3.83-12.032-5.737-19.11-5.737
		c-5.954,0-11.071,1.288-15.329,3.843c-2.522,1.508-4.971,3.851-7.349,7.054v-8.495H0v96.14h18.955V89.342
		c5.716,6.583,13.404,9.883,23.042,9.883c7.997,0,14.904-2.103,20.715-6.383c5.448-3.972,9.255-9.148,11.464-15.512
		c1.315,3.765,3.207,7.167,5.677,10.224c6.4,7.782,14.848,11.671,25.364,11.671c9.691,0,17.668-3.926,23.908-11.831v9.435h18.971
		V32.119l22.667,63.144l-6.675,19.048c6.8-1.459,13.693,0.96,18.136,5.932l34.687-92.215H196.772z M52.468,76.201
		c-3.545,5.185-8.608,7.774-15.189,7.774c-5.335,0-9.714-1.842-13.167-5.526c-3.432-3.688-5.158-8.752-5.158-15.178
		c0-5.422,1.249-9.998,3.712-13.674c3.637-5.377,8.705-8.066,15.188-8.066c5.278,0,9.669,1.956,13.154,5.891
		c3.492,3.91,5.23,9.151,5.23,15.697C56.239,68.17,54.983,72.521,52.468,76.201z M124.556,76.858
		c-3.736,4.737-8.457,7.117-14.176,7.117c-4.745,0-8.81-1.729-12.211-5.161c-4.021-4.011-6.023-9.31-6.023-15.825
		c0-5.491,1.477-10.291,4.436-14.393c3.336-4.606,7.985-6.91,13.947-6.91c6.153,0,10.993,2.261,14.531,6.829
		c2.912,3.781,4.367,8.408,4.367,13.873C129.426,67.859,127.795,72.693,124.556,76.858z M170.703,149.645
		c7.683-2.433,11.938-10.619,9.498-18.321c-2.457-7.705-10.682-11.953-18.355-9.475c-7.676,2.443-11.918,10.628-9.484,18.336
		C154.816,147.885,163.028,152.126,170.703,149.645z"/>
</g>
</svg>
