<?xml version="1.0" encoding="utf-8"?>
<!-- Generator: Adobe Illustrator 16.0.0, SVG Export Plug-In . SVG Version: 6.00 Build 0)  -->
<!DOCTYPE svg PUBLIC "-//W3C//DTD SVG 1.1//EN" "http://www.w3.org/Graphics/SVG/1.1/DTD/svg11.dtd">
<svg version="1.1" id="Ebene_1" xmlns="http://www.w3.org/2000/svg" xmlns:xlink="http://www.w3.org/1999/xlink" x="0px" y="0px"
	 width="458.326px" height="200.736px" viewBox="17.593 150.248 458.326 200.736"
	 enable-background="new 17.593 150.248 458.326 200.736" xml:space="preserve">
<path fill="#FBC000" d="M100.943,150.747L21.86,193.896l87.772,51.052c0.806,0.472,1.71,1.396,1.71,2.398v75.21
	c0,1.062-0.924,1.77-1.042,1.828l-5.229,2.891c-0.806,0.451-2.005,0.49-3.185-0.157l-4.659-2.595
	c-0.668-0.373-1.258-1.277-1.258-2.262V255.74c0-1.18-1.278-1.73-2.123-2.223L17.593,209.15v88.972c0,1.965,1.887,4.228,3.479,5.17
	L100.255,350c2.536,1.494,4.05,1.258,7.568-0.512l78.239-46.176c1.828-1.082,3.598-3.086,3.598-5.309V209.13l-52.487,30.687
	c-0.668,0.393-1.848,0.531-2.536,0.137l-4.757-2.752c-0.943-0.55-1.808-1.631-1.828-2.772l-0.098-5.543
	c-0.02-0.826,0.55-1.926,1.278-2.339l56.143-32.691l-79.044-43.09C105.091,150.098,102.221,150.059,100.943,150.747L100.943,150.747
	z"/>
<path fill="#FBC000" d="M295.479,283.771c-1.276,0.295-9.77,1.18-12.935,0.67c-12.896-2.104-19.108-8.689-19.226-20.17
	c-0.139-12.228,4.953-21.112,20.051-21.743c2.556-0.098,11.009,1.396,12.051,2.359L295.479,283.771L295.479,283.771z
	 M314.96,297.926V193.248h-19.579v34.323c-1.828-1.062-9.83-2.497-16.102-2.32c-20.936,0.59-36.484,17.103-36.051,37.292
	c0.55,26.4,16.12,37.468,40.514,39.001C296.245,302.33,311.244,298.516,314.96,297.926L314.96,297.926z M456.418,283.771
	c-1.277,0.295-9.77,1.18-12.935,0.67c-12.896-2.104-19.107-8.689-19.245-20.17c-0.139-12.228,4.954-21.112,20.051-21.743
	c2.556-0.098,11.009,1.396,12.051,2.359L456.418,283.771z M475.919,297.926V193.248H456.34v34.323
	c-1.828-1.062-9.829-2.497-16.12-2.32c-20.936,0.59-36.483,17.103-36.052,37.292c0.55,26.4,16.119,37.468,40.515,39.001
	C457.205,302.33,472.204,298.516,475.919,297.926L475.919,297.926z M325.948,231.384v98.29h19.814l-0.078-85.493
	c1.277-0.295,9.712-1.416,12.915-1.238c13.054,0.767,19.01,8.059,19.305,19.54c0.195,7.334-2.241,13.428-7.037,17.222
	c-3.617,2.87-8.63,4.344-14.449,4.521l0.04,17.201c9.121,0.256,18.36-1.652,25.673-6.369c9.477-6.113,16.218-19.678,15.845-32.555
	c-0.669-23.314-13.8-36.563-40.516-37.133C344.938,225.093,329.762,229.477,325.948,231.384L325.948,231.384z"/>
</svg>
