<?xml version="1.0" encoding="utf-8"?>
<!-- Generator: Adobe Illustrator 16.0.0, SVG Export Plug-In . SVG Version: 6.00 Build 0)  -->
<!DOCTYPE svg PUBLIC "-//W3C//DTD SVG 1.1//EN" "http://www.w3.org/Graphics/SVG/1.1/DTD/svg11.dtd">
<svg version="1.1" id="Layer_1" xmlns="http://www.w3.org/2000/svg" xmlns:xlink="http://www.w3.org/1999/xlink" x="0px" y="0px"
	 width="1000.979px" height="175.25px" viewBox="0 0 1000.979 175.25" enable-background="new 0 0 1000.979 175.25"
	 xml:space="preserve">
<g>
	<path fill="#FBC000" d="M108.703,87.625c0-27.855,13.013-52.654,33.272-68.704C127.038,7.088,108.164,0,87.624,0
		C39.231,0,0,39.232,0,87.625c0,48.395,39.231,87.625,87.624,87.625c20.54,0,39.414-7.086,54.351-18.922
		C121.716,140.28,108.703,115.479,108.703,87.625"/>
	<path fill="#FBC000" d="M108.703,87.625c0,27.854,13.013,52.655,33.272,68.706c20.261-16.051,33.274-40.853,33.274-68.706
		c0-27.855-13.013-52.654-33.274-68.704C121.716,34.971,108.703,59.77,108.703,87.625"/>
	<path fill="#FBC000" d="M427.98,64.085c-2.036-2.04-4.45-3.627-7.246-4.76c-2.8-1.13-5.859-1.696-9.186-1.696
		c-1.759,0-3.589,0.151-5.483,0.456c-1.896,0.304-3.756,0.838-5.572,1.605c-1.818,0.768-3.55,1.831-5.194,3.182
		c-1.643,1.355-3.072,3.062-4.282,5.123c-1.958-3.23-4.605-5.768-7.95-7.608c-3.344-1.839-7.167-2.758-11.471-2.758
		c-1.447,0-2.942,0.132-4.488,0.394c-1.547,0.265-3.08,0.719-4.604,1.364c-1.527,0.647-2.984,1.526-4.373,2.638
		c-1.39,1.111-2.648,2.516-3.785,4.214v-7.095h-12.202v58.077h12.321V85.032c0-2.467,0.393-4.659,1.173-6.579
		c0.782-1.92,1.827-3.526,3.142-4.82c1.309-1.293,2.845-2.273,4.604-2.942c1.763-0.666,3.642-0.998,5.634-0.998
		c4.146,0,7.363,1.314,9.65,3.94c2.29,2.626,3.432,6.385,3.432,11.275v32.311h12.323V85.032c0-2.467,0.39-4.659,1.173-6.579
		c0.782-1.92,1.827-3.526,3.139-4.82c1.312-1.293,2.848-2.273,4.605-2.942c1.759-0.666,3.636-0.998,5.632-0.998
		c4.146,0,7.363,1.314,9.652,3.94c2.287,2.626,3.432,6.385,3.432,11.275v32.311h12.321V80.726c0-3.394-0.556-6.506-1.672-9.336
		C431.588,68.563,430.012,66.126,427.98,64.085"/>
	<path fill="#FBC000" d="M492.956,66.176c-2.021-2.586-4.526-4.657-7.52-6.214c-2.99-1.554-6.565-2.333-10.729-2.333
		c-4.085,0-7.881,0.758-11.398,2.272c-3.516,1.517-6.587,3.627-9.213,6.336c-2.629,2.708-4.688,5.931-6.186,9.669
		c-1.494,3.738-2.242,7.832-2.242,12.275c0,4.447,0.749,8.537,2.242,12.277c1.495,3.738,3.556,6.961,6.186,9.67
		c2.625,2.707,5.697,4.814,9.213,6.334c3.519,1.516,7.313,2.271,11.398,2.271c4.161,0,7.737-0.769,10.729-2.305
		c2.991-1.533,5.497-3.595,7.52-6.183v6.969h12.671V59.143h-12.671V66.176z M492.472,95.579c-0.849,2.264-2.042,4.223-3.578,5.881
		c-1.535,1.656-3.374,2.961-5.517,3.91c-2.141,0.95-4.527,1.424-7.152,1.424c-2.749,0-5.205-0.492-7.365-1.485
		c-2.162-0.988-3.992-2.322-5.484-4.002c-1.497-1.675-2.647-3.644-3.456-5.908c-0.81-2.265-1.213-4.668-1.213-7.215
		c0-2.544,0.404-4.95,1.213-7.213c0.809-2.264,1.959-4.232,3.456-5.909c1.493-1.677,3.322-3.01,5.484-4.002
		c2.16-0.989,4.616-1.486,7.365-1.486c2.625,0,5.014,0.476,7.152,1.425c2.145,0.953,3.98,2.254,5.517,3.911
		c1.535,1.658,2.729,3.618,3.578,5.881c0.85,2.263,1.271,4.729,1.271,7.396C493.743,90.85,493.32,93.314,492.472,95.579"/>
	<path fill="#FBC000" d="M563.867,88.091c-3.559-2.767-8.506-4.617-14.854-5.547l-5.999-0.909c-1.334-0.202-2.585-0.434-3.759-0.698
		c-1.173-0.261-2.181-0.616-3.031-1.059c-0.851-0.445-1.525-1.011-2.031-1.699c-0.508-0.688-0.761-1.535-0.761-2.546
		c0-2.061,0.961-3.729,2.886-5.003c1.919-1.271,4.612-1.908,8.093-1.908c1.814,0,3.604,0.161,5.362,0.485
		c1.759,0.323,3.429,0.726,5.002,1.211c1.575,0.485,3.013,1.022,4.306,1.609c1.293,0.584,2.383,1.142,3.271,1.665l5.461-9.881
		c-3.03-1.94-6.568-3.446-10.612-4.515c-4.039-1.071-8.345-1.608-12.913-1.608c-3.717,0-7.052,0.435-10.001,1.304
		c-2.948,0.869-5.465,2.101-7.549,3.698c-2.079,1.597-3.677,3.547-4.789,5.849c-1.108,2.306-1.665,4.891-1.665,7.761
		c0,4.688,1.665,8.477,5,11.367c3.336,2.892,8.232,4.776,14.703,5.669l6.062,0.787c3.476,0.482,6.022,1.266,7.638,2.332
		c1.614,1.072,2.431,2.438,2.431,4.092c0,2.184-1.118,3.91-3.336,5.186c-2.229,1.271-5.521,1.912-9.881,1.912
		c-2.39,0-4.52-0.166-6.399-0.487c-1.877-0.324-3.598-0.759-5.151-1.304c-1.556-0.547-2.948-1.172-4.183-1.881
		c-1.232-0.707-2.374-1.463-3.428-2.271l-5.879,9.519c2.103,1.575,4.306,2.851,6.604,3.817c2.306,0.971,4.568,1.729,6.79,2.274
		c2.223,0.545,4.324,0.908,6.309,1.09c1.979,0.183,3.718,0.273,5.212,0.273c4.163,0,7.89-0.465,11.188-1.395
		c3.289-0.932,6.061-2.234,8.304-3.91c2.24-1.68,3.962-3.676,5.152-6.004c1.191-2.322,1.789-4.879,1.789-7.668
		C569.203,94.73,567.423,90.857,563.867,88.091"/>
	<path fill="#FBC000" d="M682.501,66.085c-2.406-2.688-5.295-4.767-8.672-6.244c-3.372-1.475-7.085-2.212-11.124-2.212
		c-4.282,0-8.193,0.737-11.73,2.212c-3.538,1.477-6.578,3.556-9.123,6.244c-2.548,2.688-4.524,5.909-5.941,9.669
		c-1.412,3.76-2.121,7.902-2.121,12.428c0,4.609,0.728,8.791,2.182,12.551c1.458,3.757,3.496,6.97,6.127,9.636
		c2.627,2.67,5.762,4.733,9.396,6.187c3.639,1.456,7.636,2.184,12.002,2.184c4.407,0,8.598-0.607,12.582-1.818
		c3.979-1.213,7.747-3.334,11.303-6.363l-6.303-9.033c-2.424,1.939-5.104,3.443-8.032,4.517c-2.93,1.069-5.852,1.604-8.759,1.604
		c-2.065,0-4.044-0.281-5.943-0.848c-1.898-0.566-3.614-1.443-5.15-2.637c-1.537-1.191-2.85-2.723-3.938-4.576
		c-1.09-1.859-1.84-4.104-2.245-6.73h42.922c0.078-0.729,0.145-1.494,0.182-2.301c0.041-0.812,0.062-1.619,0.062-2.428
		c0-4.526-0.677-8.658-2.033-12.399C686.783,71.987,684.902,68.773,682.501,66.085 M647.064,83.211
		c0.32-2.101,0.888-4.032,1.695-5.79c0.811-1.758,1.852-3.274,3.124-4.546c1.274-1.274,2.787-2.254,4.545-2.942
		c1.759-0.686,3.77-1.029,6.031-1.029c4.043,0,7.337,1.254,9.881,3.76c2.549,2.506,4.163,6.021,4.851,10.547H647.064z"/>
	<path fill="#FBC000" d="M850.832,66.176c-2.024-2.586-4.527-4.657-7.518-6.214c-2.994-1.554-6.569-2.333-10.729-2.333
		c-4.085,0-7.886,0.758-11.399,2.272c-3.516,1.517-6.588,3.627-9.215,6.336s-4.688,5.931-6.183,9.669
		c-1.5,3.738-2.245,7.832-2.245,12.275c0,4.447,0.745,8.537,2.245,12.277c1.495,3.738,3.556,6.961,6.183,9.67
		c2.627,2.707,5.699,4.814,9.215,6.334c3.516,1.516,7.314,2.271,11.399,2.271c4.158,0,7.733-0.769,10.729-2.305
		c2.988-1.533,5.491-3.595,7.518-6.183v6.969h12.669V59.143h-12.669V66.176z M850.349,95.579c-0.852,2.264-2.043,4.223-3.579,5.881
		c-1.535,1.656-3.377,2.961-5.516,3.91c-2.145,0.95-4.527,1.424-7.154,1.424c-2.75,0-5.2-0.492-7.362-1.485
		c-2.162-0.988-3.993-2.322-5.488-4.002c-1.495-1.675-2.646-3.644-3.455-5.908s-1.21-4.668-1.21-7.215c0-2.544,0.4-4.95,1.21-7.213
		c0.812-2.264,1.96-4.232,3.455-5.909s3.326-3.01,5.488-4.002c2.162-0.989,4.612-1.486,7.362-1.486c2.627,0,5.012,0.476,7.154,1.425
		c2.139,0.953,3.979,2.254,5.516,3.911c1.536,1.658,2.729,3.618,3.579,5.881c0.849,2.263,1.271,4.729,1.271,7.396
		C851.618,90.85,851.195,93.314,850.349,95.579"/>
	<path fill="#FBC000" d="M618.197,105.641c-2.043,0.771-4.053,1.152-6.031,1.152c-1.297,0-2.498-0.203-3.611-0.607
		c-1.106-0.399-2.079-1.039-2.905-1.908c-0.828-0.868-1.486-1.989-1.976-3.362c-0.481-1.375-0.727-3.031-0.727-4.974v-25.28h20.352
		V59.145h-20.352V41.563h-12.729v17.582h-11.579v11.517h11.579v25.523c0,7.722,1.831,13.41,5.488,17.062
		c3.657,3.66,8.777,5.488,15.37,5.488c3.676,0,6.979-0.564,9.908-1.697c1.938-0.75,3.734-1.604,5.415-2.543l-4.333-10.607
		C620.842,104.54,619.555,105.129,618.197,105.641"/>
	<path fill="#FBC000" d="M732.584,57.628c-3.556,0-6.767,0.647-9.637,1.94c-2.871,1.294-5.272,4.407-7.214,7.196v-7.619h-11.507
		v58.078h11.625v-31.95c0-2.466,0.347-4.668,1.03-6.609c0.688-1.94,1.64-3.574,2.854-4.911c1.21-1.333,2.664-2.342,4.364-3.028
		c1.693-0.688,3.554-1.032,5.575-1.032c1.537,0,3.193,0.181,4.97,0.544c0.905,0.185,1.758,0.414,2.55,0.686l3.744-12.123
		c-1.019-0.321-2.049-0.596-3.104-0.777C736.273,57.76,734.525,57.628,732.584,57.628"/>
	<path fill="#FBC000" d="M908.718,57.628c-3.561,0-6.771,0.647-9.643,1.94c-2.87,1.294-5.271,4.407-7.213,7.196v-7.619h-11.501
		v58.078h11.62v-31.95c0-2.466,0.345-4.668,1.033-6.609c0.688-1.94,1.635-3.574,2.85-4.911c1.21-1.333,2.668-2.342,4.366-3.028
		c1.69-0.688,3.551-1.032,5.573-1.032c1.536,0,3.192,0.181,4.975,0.544c0.904,0.185,1.753,0.414,2.544,0.686l3.745-12.123
		c-1.019-0.321-2.048-0.596-3.105-0.777C912.402,57.76,910.654,57.628,908.718,57.628"/>
	<path fill="#FBC000" d="M967.896,35.538v30.638c-2.024-2.586-4.527-4.657-7.52-6.214c-2.994-1.554-6.568-2.333-10.73-2.333
		c-4.08,0-7.882,0.758-11.396,2.272c-3.521,1.517-6.588,3.627-9.215,6.336c-2.631,2.708-4.692,5.931-6.185,9.669
		c-1.5,3.738-2.243,7.832-2.243,12.275c0,4.447,0.743,8.537,2.243,12.277c1.49,3.738,3.554,6.961,6.185,9.67
		c2.627,2.707,5.693,4.814,9.215,6.334c3.515,1.516,7.314,2.271,11.396,2.271c4.162,0,7.736-0.769,10.73-2.305
		c2.99-1.533,5.493-3.595,7.52-6.183v6.969h12.669V35.538H967.896z M967.408,95.579c-0.846,2.264-2.042,4.223-3.578,5.881
		c-1.532,1.656-3.372,2.961-5.518,3.91c-2.14,0.95-4.525,1.424-7.152,1.424c-2.746,0-5.203-0.492-7.365-1.485
		c-2.162-0.988-3.988-2.322-5.488-4.002c-1.488-1.675-2.645-3.644-3.448-5.908c-0.812-2.265-1.216-4.668-1.216-7.215
		c0-2.544,0.404-4.95,1.216-7.213c0.806-2.264,1.96-4.232,3.448-5.909c1.5-1.677,3.326-3.01,5.488-4.002
		c2.162-0.989,4.619-1.486,7.365-1.486c2.627,0,5.015,0.476,7.152,1.425c2.146,0.953,3.983,2.254,5.518,3.911
		c1.536,1.658,2.732,3.618,3.578,5.881c0.852,2.263,1.272,4.729,1.272,7.396C968.683,90.85,968.26,93.314,967.408,95.579"/>
	<path fill="#FBC000" d="M762.91,74.754c1.614-1.637,3.533-2.911,5.76-3.82c2.222-0.909,4.628-1.364,7.213-1.364
		c2.843,0,5.488,0.456,7.938,1.364c2.362,0.878,4.411,2.105,6.148,3.665l6.098-10.145c-2.281-1.827-4.862-3.324-7.726-4.491
		c-3.823-1.555-7.973-2.335-12.458-2.335c-4.49,0-8.64,0.78-12.462,2.335c-3.817,1.556-7.106,3.697-9.877,6.425
		c-2.77,2.727-4.94,5.952-6.519,9.669c-1.578,3.718-2.365,7.761-2.365,12.125c0,4.363,0.787,8.408,2.365,12.125
		c1.575,3.717,3.749,6.941,6.519,9.668c2.769,2.729,6.06,4.869,9.877,6.43c3.822,1.554,7.972,2.332,12.462,2.332
		c4.485,0,8.635-0.778,12.458-2.332c2.861-1.17,5.442-2.663,7.726-4.495l-6.098-10.144c-1.736,1.558-3.786,2.781-6.148,3.66
		c-2.447,0.912-5.095,1.367-7.938,1.367c-2.585,0-4.991-0.455-7.213-1.367c-2.227-0.904-4.146-2.18-5.76-3.816
		c-1.615-1.637-2.892-3.596-3.823-5.879c-0.929-2.282-1.394-4.799-1.394-7.547c0-2.749,0.465-5.266,1.394-7.548
		C760.021,78.351,761.295,76.391,762.91,74.754"/>
	<path fill="#FBC000" d="M276.973,135.564v-2.989h-1.211v-0.824h3.313v0.824h-1.209v2.989H276.973z M283.375,135.564v-2.646
		l-0.858,2.281h-0.947l-0.858-2.277v2.643h-0.895v-3.813h1.281l0.948,2.442l0.942-2.442h1.279v3.813H283.375L283.375,135.564z"/>
	<path fill="#FBC000" d="M996.4,111.645c0.635,0,1.228,0.117,1.782,0.353c0.558,0.235,1.046,0.555,1.459,0.957
		c0.409,0.403,0.735,0.877,0.977,1.412c0.239,0.541,0.357,1.12,0.357,1.733c0,0.607-0.118,1.188-0.357,1.729
		c-0.239,0.545-0.565,1.016-0.977,1.424c-0.413,0.408-0.9,0.728-1.459,0.963c-0.557,0.232-1.147,0.353-1.782,0.353
		c-0.648,0-1.256-0.119-1.817-0.353c-0.562-0.235-1.049-0.555-1.463-0.963s-0.736-0.879-0.978-1.424
		c-0.232-0.541-0.35-1.121-0.35-1.729c0-0.613,0.115-1.192,0.35-1.733c0.239-0.535,0.562-1.009,0.978-1.412
		c0.414-0.402,0.901-0.724,1.463-0.957S995.752,111.645,996.4,111.645 M996.4,119.325c0.439,0,0.858-0.082,1.251-0.252
		c0.391-0.169,0.729-0.396,1.017-0.691c0.29-0.289,0.516-0.629,0.681-1.021c0.166-0.393,0.249-0.812,0.249-1.262
		c0-0.44-0.083-0.858-0.249-1.256c-0.165-0.393-0.391-0.734-0.681-1.021c-0.285-0.289-0.626-0.517-1.017-0.687
		c-0.393-0.17-0.812-0.254-1.251-0.254c-0.456,0-0.886,0.084-1.274,0.254c-0.396,0.17-0.736,0.396-1.03,0.687
		c-0.29,0.286-0.516,0.631-0.686,1.021c-0.161,0.396-0.244,0.814-0.244,1.256c0,0.449,0.083,0.869,0.244,1.262
		c0.17,0.392,0.396,0.73,0.686,1.021c0.294,0.295,0.637,0.522,1.03,0.691C995.517,119.243,995.944,119.325,996.4,119.325
		 M996.658,114.125c0.542,0,0.956,0.121,1.236,0.361c0.279,0.242,0.419,0.563,0.419,0.969c0,0.316-0.103,0.58-0.301,0.787
		c-0.2,0.209-0.497,0.348-0.879,0.414l1.229,1.418h-1.329l-1.101-1.377h-0.13v1.377h-1.111v-3.949H996.658z M995.807,115.086v0.729
		h0.833c0.17,0,0.306-0.028,0.396-0.082c0.092-0.053,0.143-0.146,0.143-0.276c0-0.123-0.051-0.222-0.143-0.276
		c-0.092-0.062-0.228-0.091-0.396-0.091h-0.833V115.086z"/>
	<path fill="#FBC000" d="M196.327,0.001c-20.538,0-39.413,7.084-54.35,18.92c20.259,16.05,33.272,40.85,33.272,68.704
		c0,27.854-13.013,52.655-33.272,68.706c14.937,11.832,33.812,18.916,54.35,18.916c48.393,0,87.625-39.228,87.625-87.622
		C283.952,39.232,244.72,0.001,196.327,0.001"/>
</g>
</svg>
